<?xml version="1.0" encoding="UTF-8" standalone="yes"?>
<!-- Created with sK1/UniConvertor (http://sk1project.org/) -->
<svg xmlns="http://www.w3.org/2000/svg" xmlns:xlink="http://www.w3.org/1999/xlink"
  width="595.276pt" height="841.89pt" viewBox="0 0 595.276 841.89"
  fill-rule="evenodd">
<g fill="currentColor">
<path d="M 299.213 593.671C 300.086 608.961 312.047 630.95 305.212 652.163C 302.881 659.399 301.636 670.347 297.713 677.66C 293.779 684.993 287.935 689.674 284.964 698.658C 298.53 737.169 343.439 761.494 380.203 777.398C 382.12 776.174 382.02 776.474 383.202 774.398C 392.607 753.862 396.445 706.776 389.951 678.41C 385.952 667.413 381.952 656.412 377.953 645.414C 378.203 645.414 378.453 645.414 378.703 645.414C 379.952 646.414 381.203 647.414 382.452 648.414C 385.951 655.912 389.452 663.413 392.951 670.911C 401.558 699.229 400.782 744.596 392.201 771.399C 389.601 779.519 391.205 783.927 384.702 787.896C 353.645 783.576 318.004 751.862 299.213 733.153C 293.295 727.262 278.352 711.768 279.715 704.657C 277.716 704.657 275.715 704.657 273.716 704.657C 269.076 712.517 256.083 714.072 252.718 721.905C 256.218 729.653 259.718 737.404 263.217 745.152C 269.849 757.383 299.35 797.45 313.461 799.145C 316.996 792.636 324.617 778.915 331.459 775.898C 331.459 776.648 331.459 777.398 331.459 778.148C 327.807 788.52 320.794 802.831 311.211 807.394C 295.719 798.86 241.89 747.249 246.719 725.654C 232.924 725.935 221.044 729.525 209.224 733.153C 199.976 733.153 190.725 733.153 181.477 733.153C 123.991 733.156 82.1938 718.05 45.7443 697.158C 46.1946 684.563 73.3848 636.448 80.24 623.667C 90.4395 626.213 99.5363 636.161 108.736 640.165C 133.162 650.796 181.278 666.23 209.224 650.664C 209.671 644.984 211.198 636.228 207.724 632.666C 199.314 619.277 164.891 615.894 146.982 610.169C 116.385 600.388 78.0805 582.474 65.2418 554.676C 60.241 543.848 59.2422 533.248 59.2426 517.18C 59.244 461.81 94.8562 435.805 134.233 419.692C 145.219 415.197 159.795 417.328 171.729 413.693C 197.342 405.892 236.455 427.936 258.718 428.691C 259.642 419.498 265.673 416.619 269.216 410.694C 288 379.28 310.027 364.232 339.708 343.952C 341.457 344.202 343.207 344.452 344.957 344.702C 349.983 354.95 357.254 365.735 359.955 378.448C 349.992 374.876 350.771 357.515 341.957 352.201C 341.707 351.951 341.457 351.701 341.207 351.451C 320.017 355.688 263.236 409.186 266.217 434.691C 276.45 436.953 284.396 446.658 294.713 441.44C 306.665 410.67 372.284 373.058 415.448 372.448C 421.351 419.836 418.73 485.172 390.701 506.682C 390.451 506.682 390.201 506.682 389.951 506.682C 389.951 505.682 389.951 504.682 389.951 503.682C 395.781 492.968 402.94 480.565 407.199 468.436C 412.631 452.968 414.54 394.453 406.449 381.447C 358.932 385.859 322.872 421.041 297.713 446.689C 290.263 454.284 287.191 471.145 282.715 481.185C 275.016 498.455 284.388 535.397 277.465 551.676C 277.215 551.676 276.965 551.676 276.715 551.676C 276.02 533.929 277.2 511.046 275.216 493.183C 274.966 493.183 274.716 493.183 274.466 493.183C 273.216 493.683 271.966 494.183 270.716 494.683C 267.717 501.182 264.717 507.682 261.717 514.181C 261.467 519.679 261.217 525.18 260.967 530.679C 260.717 530.679 260.467 530.679 260.217 530.679C 258.718 525.68 257.218 520.679 255.718 515.681C 244.836 499.616 175.149 480.779 149.231 494.683C 148.892 501.109 146.95 511.709 150.731 515.681C 158.126 526.68 236.052 546.034 254.218 554.676C 264.092 559.373 268.582 569.347 282.715 569.674C 284.214 567.674 285.715 565.674 287.214 563.675C 288.214 563.924 289.214 564.174 290.214 564.424C 288.964 566.424 287.714 568.424 286.464 570.424C 292.668 586.322 330.034 611.656 347.207 619.168C 347.207 619.667 347.207 620.168 347.207 620.667C 328.491 616.894 315.336 594.861 299.213 593.671z"/>
<path d="M 425.947 454.938C 450.306 454.379 482.499 454.743 494.938 466.937C 494.607 494.332 472.721 508.064 463.442 526.929C 462.442 526.929 461.442 526.929 460.443 526.929C 460.443 526.179 460.443 525.429 460.443 524.679C 465.691 511.722 486.042 486.576 483.69 471.436C 477.415 468.475 426.762 456.903 425.947 454.938z"/>
<path d="M 383.952 519.43C 441.252 518.383 501.335 551.513 520.435 586.172C 510.474 604.149 478.062 619.823 457.443 626.667C 451.805 628.538 435.745 633.685 431.196 629.666C 453.449 629.76 501.337 600.153 510.686 586.172C 503.835 563.369 424.554 515.306 382.452 523.929C 368.955 527.429 355.454 530.929 341.957 534.428C 336.209 536.407 335.077 539.986 326.959 540.427C 326.959 539.678 326.959 538.928 326.959 538.178C 337.693 534.054 349.993 527.965 361.455 523.929C 368.953 522.43 376.454 520.93 383.952 519.43z"/>
<path d="M 261.717 533.678C 262.717 534.178 263.717 534.678 264.717 535.178C 264.717 537.178 264.717 539.178 264.717 541.177C 264.467 541.177 264.217 541.177 263.967 541.177C 263.717 541.177 263.467 541.177 263.217 541.177C 262.717 538.678 262.217 536.178 261.717 533.678z"/>
<path d="M 264.717 541.177C 265.217 541.177 265.717 541.177 266.217 541.177C 265.173 542.619 266.141 541.626 264.717 542.677C 264.717 542.177 264.717 541.677 264.717 541.177z"/>
<path d="M 267.717 543.427C 267.966 543.927 268.216 544.427 268.466 544.927C 268.216 544.427 267.966 543.927 267.717 543.427z"/>
<path d="M 311.961 546.427C 312.961 546.427 313.961 546.427 314.961 546.427C 314.461 547.427 313.961 548.427 313.461 549.426C 306.962 553.675 300.462 557.926 293.963 562.175C 293.963 561.175 293.963 560.175 293.963 559.175C 298.548 553.46 305.557 550.357 311.961 546.427z"/>
<path d="M 519.685 599.67C 535.682 609.668 551.683 619.669 567.679 629.666C 558.525 655.023 553.264 683.194 543.682 707.657C 541.663 712.811 536.34 735.742 539.183 739.153C 539.183 739.652 539.183 740.153 539.183 740.652C 540.182 740.652 541.182 740.652 542.182 740.652C 568.176 714.158 594.178 687.656 620.172 661.162C 621.614 662.206 620.621 661.238 621.672 662.662C 635.169 671.16 648.67 679.661 662.167 688.159C 661.123 689.601 662.091 688.608 660.667 689.659C 652.911 703.133 624.349 723.542 611.174 733.153C 570.29 762.977 534.084 818.335 482.19 835.141C 462.276 841.589 432.818 826.446 423.697 820.142C 418.036 816.23 414.959 808.801 408.699 805.144C 408.699 803.145 408.699 801.145 408.699 799.145C 418.253 791.276 426.561 774.021 432.696 763.15C 433.696 763.15 434.696 763.15 435.696 763.15C 442.776 776.506 451.569 781.671 473.191 781.147C 476.19 778.648 479.19 776.148 482.19 773.648C 482.139 759.527 486.989 742.738 491.189 731.654C 491.189 728.654 491.189 725.654 491.189 722.655C 497.677 703.343 499.891 678.707 506.187 659.663C 512.962 639.17 510.616 616.75 519.685 599.67z"/>
<path d="M 347.207 620.667C 348.206 620.667 349.207 620.667 350.206 620.667C 350.206 621.167 350.206 621.667 350.206 622.167C 347.468 621.483 348.673 622.196 347.207 620.667z"/>
<path d="M 350.206 622.167C 351.706 622.417 353.206 622.667 354.706 622.917C 354.706 623.167 354.706 623.417 354.706 623.667C 353.206 623.667 351.706 623.667 350.206 623.667C 350.206 623.167 350.206 622.667 350.206 622.167z"/>
<path d="M 354.706 623.667C 358.205 624.667 361.705 625.667 365.204 626.667C 365.204 627.167 365.204 627.667 365.204 628.167C 363.705 628.167 362.205 628.167 360.705 628.167C 359.004 626.204 356.391 625.646 354.706 623.667z"/>
<path d="M 366.704 628.167C 367.704 628.167 368.704 628.167 369.704 628.167C 369.704 628.666 369.704 629.166 369.704 629.666C 366.966 628.982 368.171 629.695 366.704 628.167z"/>
<path d="M 369.704 629.666C 373.703 630.416 377.703 631.166 381.702 631.916C 381.702 632.166 381.702 632.416 381.702 632.666C 378.703 632.666 375.703 632.666 372.703 632.666C 371.605 631.215 370.802 631.117 369.704 629.666z"/>
<path d="M 425.197 631.166C 426.697 631.416 428.197 631.666 429.696 631.916C 429.696 632.166 429.696 632.416 429.696 632.666C 428.197 632.666 426.697 632.666 425.197 632.666C 425.197 632.166 425.197 631.666 425.197 631.166z"/>
<path d="M 383.202 632.666C 383.702 632.666 384.202 632.666 384.702 632.666C 383.658 634.108 384.626 633.115 383.202 634.166C 383.202 633.666 383.202 633.166 383.202 632.666z"/>
<path d="M 413.198 632.666C 417.198 632.916 421.198 633.166 425.197 633.416C 425.197 633.666 425.197 633.916 425.197 634.166C 420.895 634.436 415.289 634.715 413.198 632.666z"/>
<path d="M 456.693 644.664C 457.193 644.664 457.693 644.664 458.193 644.664C 457.149 646.106 458.117 645.113 456.693 646.164C 456.693 645.664 456.693 645.164 456.693 644.664z"/>
<path d="M 458.193 646.164C 459.193 646.664 460.193 647.164 461.192 647.664C 460.942 648.664 460.692 649.664 460.443 650.664C 460.193 650.164 459.943 649.664 459.693 649.164C 458.143 647.691 458.916 648.883 458.193 646.164z"/>
<path d="M 480.69 704.657C 465.478 705.102 421.762 713.555 410.199 703.157C 433.39 703.241 452.263 700.297 473.191 700.157C 473.228 679.67 462.334 669.689 461.192 650.664C 461.442 650.664 461.692 650.664 461.942 650.664C 462.192 650.664 462.442 650.664 462.692 650.664C 466.131 669.51 480.176 680.952 480.69 704.657z"/>
</g>
</svg>